<?xml version="1.0" encoding="UTF-8" standalone="no"?>
<!-- Created with Inkscape (http://www.inkscape.org/) -->

<svg
   xmlns:osb="http://www.openswatchbook.org/uri/2009/osb"
   xmlns:dc="http://purl.org/dc/elements/1.1/"
   xmlns:cc="http://creativecommons.org/ns#"
   xmlns:rdf="http://www.w3.org/1999/02/22-rdf-syntax-ns#"
   xmlns:svg="http://www.w3.org/2000/svg"
   xmlns="http://www.w3.org/2000/svg"
   xmlns:sodipodi="http://sodipodi.sourceforge.net/DTD/sodipodi-0.dtd"
   xmlns:inkscape="http://www.inkscape.org/namespaces/inkscape"
   width="800"
   height="600"
   viewBox="0 0 800.00001 600.00001"
   id="svg2"
   version="1.1"
   inkscape:version="0.91 r13725"
   sodipodi:docname="hero-pre.svg"
   inkscape:export-filename="C:\proj\rpsc\gameplay.png"
   inkscape:export-xdpi="89.943855"
   inkscape:export-ydpi="89.943855">
  <defs
     id="defs4">
    <linearGradient
       id="linearGradient4834"
       osb:paint="solid">
      <stop
         style="stop-color:#53453c;stop-opacity:1;"
         offset="0"
         id="stop4836" />
    </linearGradient>
  </defs>
  <sodipodi:namedview
     id="base"
     pagecolor="#ffffff"
     bordercolor="#666666"
     borderopacity="1.0"
     inkscape:pageopacity="0.0"
     inkscape:pageshadow="2"
     inkscape:zoom="0.175"
     inkscape:cx="-54.368549"
     inkscape:cy="949.8611"
     inkscape:document-units="px"
     inkscape:current-layer="layer2"
     showgrid="true"
     units="px"
     inkscape:window-width="1366"
     inkscape:window-height="705"
     inkscape:window-x="-8"
     inkscape:window-y="-8"
     inkscape:window-maximized="1"
     showguides="true">
    <inkscape:grid
       type="xygrid"
       id="grid4159" />
  </sodipodi:namedview>
  <metadata
     id="metadata7">
    <rdf:RDF>
      <cc:Work
         rdf:about="">
        <dc:format>image/svg+xml</dc:format>
        <dc:type
           rdf:resource="http://purl.org/dc/dcmitype/StillImage" />
        <dc:title></dc:title>
      </cc:Work>
    </rdf:RDF>
  </metadata>
  <g
     inkscape:groupmode="layer"
     id="layer2"
     inkscape:label="hand"
     style="display:inline">
    <g
       id="g4643">
      <path
         style="display:inline;fill:#ffcc99;fill-opacity:1;fill-rule:evenodd;stroke:#000000;stroke-width:1.69777071px;stroke-linecap:butt;stroke-linejoin:miter;stroke-opacity:1"
         d="m 232.70995,194.54643 c -3.2616,2.31847 -7.75603,3.34838 -11.70175,2.68148 -2.79005,-0.47157 -5.05521,-2.27732 -6.04342,-4.92876 -0.9503,-2.54972 1.35713,-4.66822 1.24189,-7.38684 -0.11644,-2.7466 -5.33925,-3.97756 -4.2908,-6.51885 1.96712,-4.76806 6.69,-9.77694 11.83267,-9.38074 5.64252,0.43471 12.51271,6.28676 13.77678,11.80302 1.26405,5.51625 -0.20274,10.45186 -4.81537,13.73069 z"
         id="path4390"
         inkscape:connector-curvature="0"
         sodipodi:nodetypes="ssssssss"
         inkscape:export-xdpi="90.160004"
         inkscape:export-ydpi="90.160004" />
      <path
         style="display:inline;fill:none;fill-rule:evenodd;stroke:#000000;stroke-width:1.69777071px;stroke-linecap:butt;stroke-linejoin:miter;stroke-opacity:1"
         d="m 216.8884,184.62413 4.6807,-1.0726 -1.07259,-4.68069"
         id="path4392"
         inkscape:connector-curvature="0"
         inkscape:export-xdpi="90.160004"
         inkscape:export-ydpi="90.160004" />
      <path
         style="display:inline;fill:none;fill-rule:evenodd;stroke:#000000;stroke-width:1.69777071px;stroke-linecap:butt;stroke-linejoin:miter;stroke-opacity:1"
         d="m 221.5691,183.55153 1.0726,4.68071"
         id="path4394"
         inkscape:connector-curvature="0"
         inkscape:export-xdpi="90.160004"
         inkscape:export-ydpi="90.160004" />
      <path
         style="display:inline;fill:#fffcff;fill-opacity:1;fill-rule:evenodd;stroke:#000000;stroke-width:1.69777071px;stroke-linecap:butt;stroke-linejoin:miter;stroke-opacity:1"
         d="m 190.22984,255.96806 c -2.73166,-2.92428 -3.03381,-8.20496 -1.51849,-11.90862 4.4179,-10.798 22.91941,-16.05215 27.49384,-21.65916 1.34097,-1.64366 -1.65471,-7.90926 -1.51848,-11.90864 0.21539,-6.32354 3.67658,-18.6222 3.67658,-18.6222 l 11.90863,-1.51846 c 0,0 7.46912,19.06835 9.75054,29.01233 0.89485,3.90034 2.56993,8.04755 1.51848,11.90862 -1.48696,5.46039 -6.25455,9.56397 -10.39014,13.42712 -6.53893,6.10815 -13.52517,13.1874 -22.29877,14.94559 -6.20387,1.24323 -14.30307,0.94715 -18.62219,-3.67658 z"
         id="path4370"
         inkscape:connector-curvature="0"
         sodipodi:nodetypes="ssssccsssss"
         inkscape:export-xdpi="90.160004"
         inkscape:export-ydpi="90.160004" />
      <path
         inkscape:export-ydpi="90.160004"
         inkscape:export-xdpi="90.160004"
         sodipodi:nodetypes="cscccscscccscc"
         inkscape:connector-curvature="0"
         id="path4222"
         d="m 104.11144,769.55115 c 0,0 -16.977706,21.30098 -16.977707,33.95541 -1e-6,12.65444 16.977707,33.95542 16.977707,33.95542 l -33.955414,16.9777 67.910824,0 c 0,0 -4.33139,-23.49851 0,-33.95541 3.06276,-7.39415 16.97771,-16.97771 16.97771,-16.97771 0,0 13.91495,9.58356 16.97771,16.97771 4.33139,10.4569 0,33.95541 0,33.95541 l 65.48544,0 -31.53003,-16.9777 c 0,0 16.97771,-21.30098 16.97771,-33.95542 0,-12.65443 -16.97771,-33.95541 -16.97771,-33.95541 z"
         style="display:inline;opacity:1;fill:#0000ff;fill-opacity:1;fill-rule:evenodd;stroke:#000000;stroke-width:1.69777071px;stroke-linecap:butt;stroke-linejoin:miter;stroke-opacity:1"
         transform="translate(0,-452.36216)" />
      <path
         inkscape:export-ydpi="90.160004"
         inkscape:export-xdpi="90.160004"
         inkscape:connector-curvature="0"
         id="path4226"
         d="m 205.97768,768.77984 -8.48885,-76.39968 -84.88854,0 -8.48885,76.39968 z"
         style="display:inline;opacity:1;fill:#ff0000;fill-opacity:1;fill-rule:evenodd;stroke:#000000;stroke-width:1.69777071px;stroke-linecap:butt;stroke-linejoin:miter;stroke-opacity:1"
         transform="translate(0,-452.36216)" />
      <path
         inkscape:export-ydpi="90.160004"
         inkscape:export-xdpi="90.160004"
         sodipodi:nodetypes="ssssccsssss"
         inkscape:connector-curvature="0"
         id="path4228"
         d="m 113.08771,240.50108 c 3.86789,1.02608 6.92949,5.33924 7.6135,9.28202 1.99421,11.49511 -10.88842,25.77622 -11.78479,32.95677 -0.26277,2.10494 5.60404,5.82145 7.6135,9.28203 3.17723,5.47164 6.77925,17.72979 6.77925,17.72979 l -9.28203,7.61348 c 0,0 -16.458736,-12.18604 -23.67476,-19.39829 -2.83036,-2.82887 -6.452875,-5.45234 -7.613501,-9.28201 -1.641375,-5.41598 0.217408,-11.42549 1.668518,-16.89552 2.294408,-8.64887 4.451811,-18.35808 10.950536,-24.50902 4.595291,-4.34936 11.614097,-8.40164 17.729777,-6.77925 z"
         style="display:inline;fill:#fffcff;fill-opacity:1;fill-rule:evenodd;stroke:#000000;stroke-width:1.69777071px;stroke-linecap:butt;stroke-linejoin:miter;stroke-opacity:1" />
      <path
         inkscape:export-ydpi="90.160004"
         inkscape:export-xdpi="90.160004"
         style="display:inline;fill:#ff0000;fill-opacity:1;fill-rule:evenodd;stroke:#000000;stroke-width:1.16624582px;stroke-linecap:butt;stroke-linejoin:miter;stroke-opacity:1"
         d="m 215.32089,185.40658 0,-34.93375 -11.68036,-40.75605 -46.72143,-8.52804 -46.72144,8.52804 -11.680362,29.11147 2.920092,49.48948 z"
         id="path4751"
         inkscape:connector-curvature="0"
         sodipodi:nodetypes="cccccccc" />
      <path
         inkscape:export-ydpi="90.160004"
         inkscape:export-xdpi="90.160004"
         sodipodi:nodetypes="cccaccccc"
         inkscape:connector-curvature="0"
         id="path4597"
         d="m 104.69596,238.52339 52.4017,5.82241 52.40169,-5.82241 c 0,0 10.49277,-14.6869 11.64483,-23.28964 1.31354,-9.80863 -5.82242,-29.11206 -5.82242,-29.11206 l 0,-34.93446 -58.58124,-2.96527 -57.866965,11.32045 z"
         style="display:inline;fill:#ffcc99;fill-opacity:1;fill-rule:evenodd;stroke:#000000;stroke-width:1.16448224px;stroke-linecap:butt;stroke-linejoin:miter;stroke-opacity:1" />
      <ellipse
         inkscape:export-ydpi="90.160004"
         inkscape:export-xdpi="90.160004"
         ry="22.724451"
         rx="17.525869"
         cy="180.92311"
         cx="157.09766"
         id="path4599"
         style="display:inline;fill:#ffffff;fill-opacity:1;stroke:#000000;stroke-width:1.62944937;stroke-linecap:round;stroke-linejoin:round;stroke-miterlimit:4;stroke-dasharray:none;stroke-opacity:1" />
      <ellipse
         inkscape:export-ydpi="90.160004"
         inkscape:export-xdpi="90.160004"
         ry="8.7336168"
         rx="5.8224111"
         cy="183.21048"
         cx="168.74248"
         id="path4601"
         style="display:inline;fill:#000000;fill-opacity:1;stroke:none;stroke-width:1.5;stroke-linecap:round;stroke-linejoin:round;stroke-miterlimit:4;stroke-dasharray:none;stroke-opacity:1" />
      <path
         inkscape:export-ydpi="90.160004"
         inkscape:export-xdpi="90.160004"
         sodipodi:nodetypes="ccccccccccc"
         inkscape:connector-curvature="0"
         id="path4603"
         d="m 98.873555,157.00964 52.401685,-14.87966 32.61142,-4.70522 31.4351,4.70522 29.11206,9.05725 -11.64482,5.82241 -17.76131,-6.76376 -28.81798,6.76376 -33.46409,-8.11591 -53.872065,13.64424 z"
         style="display:inline;fill:#0000ff;fill-opacity:1;fill-rule:evenodd;stroke:#000000;stroke-width:1.16448224px;stroke-linecap:butt;stroke-linejoin:miter;stroke-opacity:1" />
      <path
         inkscape:export-ydpi="90.160004"
         inkscape:export-xdpi="90.160004"
         sodipodi:nodetypes="cc"
         inkscape:connector-curvature="0"
         id="path4605"
         d="m 143.92334,143.95355 -0.17586,-39.63969"
         style="display:inline;fill:none;fill-rule:evenodd;stroke:#000000;stroke-width:1.16448224px;stroke-linecap:butt;stroke-linejoin:miter;stroke-opacity:1" />
      <path
         inkscape:export-ydpi="90.160004"
         inkscape:export-xdpi="90.160004"
         sodipodi:nodetypes="caaacacacaacc"
         inkscape:connector-curvature="0"
         id="path4615"
         d="m 128.86782,154.9511 c 0,0 8.42929,49.83172 -0.88222,71.92747 -4.26354,10.11717 -13.60987,18.10919 -23.28964,23.28964 -8.725225,4.6696 -19.969161,9.60952 -29.112053,5.82241 -6.465001,-2.67789 -11.644822,-17.46723 -11.644822,-17.46723 0,0 11.494053,7.23248 17.467233,5.82241 5.342574,-1.26121 11.644822,-11.64482 11.644822,-11.64482 0,0 -7.31344,6.09207 -11.644822,5.82241 -6.984145,-0.43482 -17.467233,-11.64482 -17.467233,-11.64482 0,0 12.333761,2.74735 17.467233,0 6.169665,-3.3019 9.204767,-10.90876 11.644822,-17.46723 5.456125,-14.66518 5.822415,-46.57929 5.822415,-46.57929 z"
         style="display:inline;fill:#000000;fill-opacity:1;fill-rule:evenodd;stroke:none;stroke-width:1px;stroke-linecap:butt;stroke-linejoin:miter;stroke-opacity:1" />
      <path
         inkscape:export-ydpi="90.160004"
         inkscape:export-xdpi="90.160004"
         inkscape:connector-curvature="0"
         id="path4617"
         d="m 138.38276,160.33673 17.46723,-5.82241 23.28965,23.28964 0,-5.82241 -23.28965,-23.28964 z"
         style="display:inline;fill:#000000;fill-opacity:1;fill-rule:evenodd;stroke:#000000;stroke-width:1.16448224px;stroke-linecap:butt;stroke-linejoin:miter;stroke-opacity:1" />
      <path
         inkscape:export-ydpi="90.160004"
         inkscape:export-xdpi="90.160004"
         sodipodi:nodetypes="ccccccc"
         inkscape:connector-curvature="0"
         id="path4619"
         d="m 206.38275,214.93967 -43.46268,0.29408 -23.28965,-5.82241 5.82241,23.28964 23.28965,5.82241 29.11205,-5.82241 z"
         style="display:inline;fill:#ffffff;fill-opacity:1;fill-rule:evenodd;stroke:#000000;stroke-width:1.16448224px;stroke-linecap:butt;stroke-linejoin:miter;stroke-opacity:1" />
      <path
         inkscape:export-ydpi="90.160004"
         inkscape:export-xdpi="90.160004"
         inkscape:connector-curvature="0"
         id="path4623"
         d="m 186.20971,209.41134 9.31586,-4.65793 -1.16448,4.65793 z"
         style="display:inline;fill:#000000;fill-opacity:1;fill-rule:evenodd;stroke:none;stroke-width:1px;stroke-linecap:butt;stroke-linejoin:miter;stroke-opacity:1" />
      <text
         inkscape:export-ydpi="90.160004"
         inkscape:export-xdpi="90.160004"
         sodipodi:linespacing="125%"
         id="text4625"
         y="133.2827"
         x="149.36517"
         style="display:inline;font-style:normal;font-weight:normal;font-size:22.27567101px;line-height:125%;font-family:sans-serif;letter-spacing:0px;word-spacing:0px;fill:#ffffff;fill-opacity:1;stroke:none;stroke-width:1px;stroke-linecap:butt;stroke-linejoin:miter;stroke-opacity:1"
         xml:space="preserve"><tspan
           y="133.2827"
           x="149.36517"
           id="tspan4627"
           sodipodi:role="line">KING</tspan></text>
      <ellipse
         transform="scale(-1,1)"
         style="display:inline;fill:#ffffff;fill-opacity:1;stroke:#000000;stroke-width:1.38784361;stroke-linecap:round;stroke-linejoin:round;stroke-miterlimit:4;stroke-dasharray:none;stroke-opacity:1"
         id="ellipse4726"
         cx="-200.32689"
         cy="180.92311"
         rx="12.646672"
         ry="22.845255"
         inkscape:export-xdpi="90.160004"
         inkscape:export-ydpi="90.160004" />
      <ellipse
         transform="scale(-1,1)"
         style="display:inline;fill:#000000;fill-opacity:1;stroke:none;stroke-width:1.5;stroke-linecap:round;stroke-linejoin:round;stroke-miterlimit:4;stroke-dasharray:none;stroke-opacity:1"
         id="ellipse4728"
         cx="-193.68207"
         cy="183.21048"
         rx="5.8224111"
         ry="8.7336168"
         inkscape:export-xdpi="90.160004"
         inkscape:export-ydpi="90.160004" />
      <path
         style="display:inline;fill:#000000;fill-opacity:1;fill-rule:evenodd;stroke:#000000;stroke-width:1.16448224px;stroke-linecap:butt;stroke-linejoin:miter;stroke-opacity:1"
         d="m 224.04177,160.33673 -17.46723,-5.82241 -23.28965,23.28964 0,-5.82241 23.28965,-23.28964 z"
         id="path4730"
         inkscape:connector-curvature="0"
         inkscape:export-xdpi="90.160004"
         inkscape:export-ydpi="90.160004" />
      <path
         inkscape:export-ydpi="90.160004"
         inkscape:export-xdpi="90.160004"
         sodipodi:nodetypes="ssssssss"
         inkscape:connector-curvature="0"
         id="path4236"
         d="m 109.73264,315.10618 c 1.53137,-3.69706 4.79178,-6.95748 8.48885,-8.48885 2.61423,-1.08285 5.49263,-0.75653 7.73854,0.96469 2.15975,1.65519 1.33049,4.67588 2.87253,6.91782 1.55791,2.26501 6.6366,0.53298 7.09856,3.24295 0.86677,5.08455 -0.47315,11.83726 -5.04044,14.23392 -5.01121,2.62959 -13.94072,1.32197 -17.94241,-2.67971 -4.00168,-4.00168 -5.38133,-8.96236 -3.21563,-14.19082 z"
         style="display:inline;fill:#ffcc99;fill-opacity:1;fill-rule:evenodd;stroke:#000000;stroke-width:1.69777071px;stroke-linecap:butt;stroke-linejoin:miter;stroke-opacity:1" />
      <path
         inkscape:export-ydpi="90.160004"
         inkscape:export-xdpi="90.160004"
         inkscape:connector-curvature="0"
         id="path4238"
         d="m 128.40812,315.10618 -3.39554,3.39555 3.39554,3.39554"
         style="display:inline;fill:none;fill-rule:evenodd;stroke:#000000;stroke-width:1.69777071px;stroke-linecap:butt;stroke-linejoin:miter;stroke-opacity:1" />
      <path
         inkscape:export-ydpi="90.160004"
         inkscape:export-xdpi="90.160004"
         inkscape:connector-curvature="0"
         id="path4240"
         d="m 125.01258,318.50173 -3.39555,-3.39555"
         style="display:inline;fill:none;fill-rule:evenodd;stroke:#000000;stroke-width:1.69777071px;stroke-linecap:butt;stroke-linejoin:miter;stroke-opacity:1" />
    </g>
  </g>
</svg>
