<?xml version="1.0" encoding="UTF-8" standalone="no"?>
<!-- Created with Inkscape (http://www.inkscape.org/) -->

<svg
   xmlns:osb="http://www.openswatchbook.org/uri/2009/osb"
   xmlns:dc="http://purl.org/dc/elements/1.1/"
   xmlns:cc="http://creativecommons.org/ns#"
   xmlns:rdf="http://www.w3.org/1999/02/22-rdf-syntax-ns#"
   xmlns:svg="http://www.w3.org/2000/svg"
   xmlns="http://www.w3.org/2000/svg"
   xmlns:sodipodi="http://sodipodi.sourceforge.net/DTD/sodipodi-0.dtd"
   xmlns:inkscape="http://www.inkscape.org/namespaces/inkscape"
   width="800"
   height="600"
   viewBox="0 0 800.00001 600.00001"
   id="svg2"
   version="1.1"
   inkscape:version="0.91 r13725"
   sodipodi:docname="triple.svg"
   inkscape:export-filename="C:\proj\rpsc\triple1.png"
   inkscape:export-xdpi="89.943855"
   inkscape:export-ydpi="89.943855">
  <defs
     id="defs4">
    <linearGradient
       id="linearGradient4834"
       osb:paint="solid">
      <stop
         style="stop-color:#53453c;stop-opacity:1;"
         offset="0"
         id="stop4836" />
    </linearGradient>
  </defs>
  <sodipodi:namedview
     id="base"
     pagecolor="#ffffff"
     bordercolor="#666666"
     borderopacity="1.0"
     inkscape:pageopacity="0.0"
     inkscape:pageshadow="2"
     inkscape:zoom="0.49497475"
     inkscape:cx="235.99926"
     inkscape:cy="147.39713"
     inkscape:document-units="px"
     inkscape:current-layer="layer14"
     showgrid="true"
     units="px"
     inkscape:window-width="1366"
     inkscape:window-height="705"
     inkscape:window-x="-8"
     inkscape:window-y="-8"
     inkscape:window-maximized="1"
     showguides="true">
    <inkscape:grid
       type="xygrid"
       id="grid4159" />
  </sodipodi:namedview>
  <metadata
     id="metadata7">
    <rdf:RDF>
      <cc:Work
         rdf:about="">
        <dc:format>image/svg+xml</dc:format>
        <dc:type
           rdf:resource="http://purl.org/dc/dcmitype/StillImage" />
        <dc:title></dc:title>
      </cc:Work>
    </rdf:RDF>
  </metadata>
  <g
     inkscape:groupmode="layer"
     id="layer14"
     inkscape:label="bg">
    <rect
       style="opacity:1;fill:#ffffff;fill-opacity:1;fill-rule:nonzero;stroke:none;stroke-width:5;stroke-linecap:round;stroke-linejoin:round;stroke-miterlimit:4;stroke-dasharray:none;stroke-dashoffset:0;stroke-opacity:1"
       id="rect4617"
       width="800"
       height="600"
       x="0"
       y="0" />
  </g>
  <g
     inkscape:groupmode="layer"
     id="g4382"
     inkscape:label="hand extend"
     style="display:inline"
     sodipodi:insensitive="true">
    <path
       sodipodi:nodetypes="ssssssss"
       inkscape:connector-curvature="0"
       id="path4391"
       d="m 48.008886,262.00635 c 3.51488,-1.91285 6.413487,-5.49862 7.546547,-9.33653 0.80118,-2.71383 0.1732,-5.54179 -1.77523,-7.59371 -1.873657,-1.97319 -4.790087,-0.83007 -7.182107,-2.12716 -2.41662,-1.31042 -1.22972,-6.54341 -3.9733,-6.71708 -5.1476,-0.32585 -11.7214,1.71855 -13.62316,6.51306 -2.08658,5.26053 0.1552,14.0024 4.5565,17.55988 4.40126,3.5575 9.47976,4.40642 14.45075,1.70154 z"
       style="display:inline;fill:#f0f0f0;fill-opacity:1;fill-rule:evenodd;stroke:#000000;stroke-width:1.69777071px;stroke-linecap:butt;stroke-linejoin:miter;stroke-opacity:1"
       inkscape:export-xdpi="90.160004"
       inkscape:export-ydpi="90.160004"
       inkscape:transform-center-x="31.92"
       inkscape:transform-center-y="-14.217709" />
    <path
       inkscape:connector-curvature="0"
       id="path4393"
       d="m 46.039886,243.43496 -3.01861,3.73463 -3.73463,-3.01861"
       style="display:inline;fill:none;fill-rule:evenodd;stroke:#000000;stroke-width:1.69777071px;stroke-linecap:butt;stroke-linejoin:miter;stroke-opacity:1"
       inkscape:export-xdpi="90.160004"
       inkscape:export-ydpi="90.160004"
       inkscape:transform-center-x="31.310952"
       inkscape:transform-center-y="-18.814871" />
    <path
       inkscape:connector-curvature="0"
       id="path4395"
       d="m 43.021266,247.16957 3.73464,3.01861"
       style="display:inline;fill:none;fill-rule:evenodd;stroke:#000000;stroke-width:1.69777071px;stroke-linecap:butt;stroke-linejoin:miter;stroke-opacity:1"
       inkscape:export-xdpi="90.160004"
       inkscape:export-ydpi="90.160004"
       inkscape:transform-center-x="29.085632"
       inkscape:transform-center-y="-15.438271" />
    <path
       inkscape:export-ydpi="90.160004"
       inkscape:export-xdpi="90.160004"
       style="display:inline;fill:#ffc759;fill-opacity:1;fill-rule:evenodd;stroke:#000000;stroke-width:1.69777071px;stroke-linecap:butt;stroke-linejoin:miter;stroke-opacity:1"
       d="m 270.09314,263.03127 c 3.5739,-1.80017 6.5846,-5.29254 7.8387,-9.09259 0.8868,-2.68703 0.3488,-5.53351 -1.5336,-7.64613 -1.8101,-2.03164 -4.7613,-0.98152 -7.1111,-2.35378 -2.3728,-1.3881 -1.0216,-6.5791 -3.7583,-6.83971 -5.1347,-0.48882 -11.77,1.34615 -13.8228,6.07795 -2.2523,5.19169 -0.2887,14.00026 3.9976,17.69547 4.2862,3.69529 9.3353,4.7047 14.3895,2.15879 z"
       id="path4397"
       inkscape:connector-curvature="0"
       sodipodi:nodetypes="ssssssss" />
    <path
       inkscape:export-ydpi="90.160004"
       inkscape:export-xdpi="90.160004"
       style="display:inline;fill:none;fill-rule:evenodd;stroke:#000000;stroke-width:1.69777071px;stroke-linecap:butt;stroke-linejoin:miter;stroke-opacity:1"
       d="m 268.71384,244.40683 -3.1355,3.63708 -3.637,-3.13556"
       id="path4399"
       inkscape:connector-curvature="0" />
    <path
       inkscape:export-ydpi="90.160004"
       inkscape:export-xdpi="90.160004"
       style="display:inline;fill:none;fill-rule:evenodd;stroke:#000000;stroke-width:1.69777071px;stroke-linecap:butt;stroke-linejoin:miter;stroke-opacity:1"
       d="m 265.57844,248.04381 3.637,3.13557"
       id="path4401"
       inkscape:connector-curvature="0" />
    <path
       sodipodi:nodetypes="ssssssss"
       inkscape:connector-curvature="0"
       id="path4403"
       d="m 526.9708,255.78876 c 3.5805,-1.78677 6.6043,-5.26783 7.8727,-9.06315 0.8969,-2.68369 0.3695,-5.53217 -1.505,-7.65183 -1.8025,-2.0384 -4.7576,-0.99935 -7.1022,-2.3804 -2.3676,-1.39699 -0.997,-6.58289 -3.7326,-6.85375 -5.1329,-0.50806 -11.775,1.30203 -13.8455,6.0261 -2.2717,5.18322 -0.3412,13.99909 3.9312,17.71033 4.2724,3.71132 9.3176,4.73966 14.3814,2.2127 z"
       style="display:inline;fill:#bc6915;fill-opacity:1;fill-rule:evenodd;stroke:#000000;stroke-width:1.69777071px;stroke-linecap:butt;stroke-linejoin:miter;stroke-opacity:1"
       inkscape:export-xdpi="90.160004"
       inkscape:export-ydpi="90.160004" />
    <path
       inkscape:connector-curvature="0"
       id="path4405"
       d="m 525.6613,237.15928 -3.1491,3.62531 -3.6253,-3.14917"
       style="display:inline;fill:none;fill-rule:evenodd;stroke:#000000;stroke-width:1.69777071px;stroke-linecap:butt;stroke-linejoin:miter;stroke-opacity:1"
       inkscape:export-xdpi="90.160004"
       inkscape:export-ydpi="90.160004" />
    <path
       inkscape:connector-curvature="0"
       id="path4407"
       d="m 522.5122,240.78449 3.6252,3.14918"
       style="display:inline;fill:none;fill-rule:evenodd;stroke:#000000;stroke-width:1.69777071px;stroke-linecap:butt;stroke-linejoin:miter;stroke-opacity:1"
       inkscape:export-xdpi="90.160004"
       inkscape:export-ydpi="90.160004" />
  </g>
  <g
     inkscape:groupmode="layer"
     id="g4370"
     inkscape:label="arm extend"
     style="display:inline"
     sodipodi:insensitive="true">
    <path
       sodipodi:nodetypes="ssssccsssss"
       inkscape:connector-curvature="0"
       id="path4376"
       d="m 121.84443,250.80418 c -1.42815,-3.73814 -6.04007,-6.32794 -10.03298,-6.59244 -11.6413,-0.77113 -24.484577,13.54539 -31.530587,15.19383 -2.0655,0.48324 -6.37985,-4.95905 -10.033,-6.59244 -5.77613,-2.58264 -18.345727,-4.87217 -18.345727,-4.87217 l -6.59243,10.03299 c 0,0 13.853407,15.0822 21.786267,21.4976 3.1115,2.51635 6.10228,5.84206 10.03298,6.59245 5.55885,1.06119 11.33889,-1.42081 16.62543,-3.44055 8.358767,-3.1935 17.786397,-6.36254 23.217887,-13.47356 3.84062,-5.02823 7.13031,-12.43516 4.87216,-18.34571 z"
       style="display:inline;fill:#fffc00;fill-opacity:1;fill-rule:evenodd;stroke:#000000;stroke-width:1.69777071px;stroke-linecap:butt;stroke-linejoin:miter;stroke-opacity:1"
       inkscape:export-xdpi="90.160004"
       inkscape:export-ydpi="90.160004"
       inkscape:transform-center-x="-9.9721669"
       inkscape:transform-center-y="1.1326509" />
    <path
       inkscape:export-ydpi="90.160004"
       inkscape:export-xdpi="90.160004"
       style="display:inline;fill:#ff45cb;fill-opacity:1;fill-rule:evenodd;stroke:#000000;stroke-width:1.69777071px;stroke-linecap:butt;stroke-linejoin:miter;stroke-opacity:1"
       d="m 344.24674,254.17542 c -1.309,-3.78152 -5.8365,-6.51618 -9.819,-6.9072 -11.611,-1.13975 -24.9017,12.76241 -31.9964,14.18669 -2.0798,0.41747 -6.2194,-5.15881 -9.819,-6.90721 -5.6913,-2.7645 -18.182,-5.45134 -18.182,-5.45134 l -6.9072,9.81897 c 0,0 13.3683,15.5138 21.0938,22.1775 3.0302,2.61373 5.914,6.03256 9.819,6.90721 5.5224,1.23685 11.3782,-1.06071 16.7261,-2.91185 8.4558,-2.92686 17.9792,-5.79548 23.6334,-12.73072 3.9981,-4.90398 7.5209,-12.20288 5.4513,-18.18205 z"
       id="path4378"
       inkscape:connector-curvature="0"
       sodipodi:nodetypes="ssssccsssss" />
    <path
       sodipodi:nodetypes="ssssccsssss"
       inkscape:connector-curvature="0"
       id="path4380"
       d="m 601.157,247.21085 c -1.2948,-3.7864 -5.812,-6.538 -9.793,-6.94395 -11.6067,-1.18325 -24.9493,12.66901 -32.0494,14.06669 -2.0813,0.40968 -6.2,-5.18208 -9.793,-6.94396 -5.6809,-2.7858 -18.1615,-5.51943 -18.1615,-5.51943 l -6.9439,9.79301 c 0,0 13.3101,15.56379 21.0105,22.2564 3.0204,2.62506 5.8914,6.05468 9.793,6.94395 5.5178,1.25754 11.3822,-1.01806 16.737,-2.84914 8.4667,-2.89516 18.0008,-5.72807 23.6809,-12.64207 4.0164,-4.88897 7.5666,-12.17461 5.5194,-18.1615 z"
       style="display:inline;fill:#ff0000;fill-opacity:0.95294118;fill-rule:evenodd;stroke:#000000;stroke-width:1.69777071px;stroke-linecap:butt;stroke-linejoin:miter;stroke-opacity:1"
       inkscape:export-xdpi="90.160004"
       inkscape:export-ydpi="90.160004" />
  </g>
  <g
     inkscape:label="leg"
     inkscape:groupmode="layer"
     id="layer1"
     transform="translate(0,-452.36216)"
     style="display:inline;opacity:1"
     sodipodi:insensitive="true">
    <path
       sodipodi:nodetypes="cacccacacccacc"
       inkscape:connector-curvature="0"
       id="path4657"
       d="m 193.57339,769.55115 c 0,0 16.9777,21.30098 16.9777,33.95541 0,12.65444 -16.9777,33.95542 -16.9777,33.95542 l 33.95541,16.9777 -67.91082,0 c 0,0 4.33139,-23.49851 0,-33.95541 -3.06276,-7.39415 -16.97771,-16.97771 -16.97771,-16.97771 0,0 -13.91495,9.58356 -16.97771,16.97771 -4.33139,10.4569 0,33.95541 0,33.95541 l -65.485437,0 31.53003,-16.9777 c 0,0 -16.97771,-21.30098 -16.97771,-33.95542 0,-12.65443 16.97771,-33.95541 16.97771,-33.95541 z"
       style="fill:#000000;fill-opacity:1;fill-rule:evenodd;stroke:#000000;stroke-width:1.69777071px;stroke-linecap:butt;stroke-linejoin:miter;stroke-opacity:1"
       inkscape:export-xdpi="90.160004"
       inkscape:export-ydpi="90.160004" />
    <path
       inkscape:connector-curvature="0"
       id="path4659"
       d="m 91.707153,768.77984 8.488847,-76.39968 84.88854,0 8.48885,76.39968 z"
       style="fill:#000000;fill-opacity:1;fill-rule:evenodd;stroke:#000000;stroke-width:1.69777071px;stroke-linecap:butt;stroke-linejoin:miter;stroke-opacity:1"
       inkscape:export-xdpi="90.160004"
       inkscape:export-ydpi="90.160004" />
    <path
       style="fill:#000000;fill-opacity:1;fill-rule:evenodd;stroke:#000000;stroke-width:1.69777071px;stroke-linecap:butt;stroke-linejoin:miter;stroke-opacity:1"
       d="m 415.46454,769.55115 c 0,0 16.9777,21.30098 16.9777,33.95541 0,12.65444 -16.9777,33.95542 -16.9777,33.95542 l 33.9554,16.9777 -67.9108,0 c 0,0 4.3314,-23.49851 0,-33.95541 -3.0628,-7.39415 -16.9777,-16.97771 -16.9777,-16.97771 0,0 -13.915,9.58356 -16.9777,16.97771 -4.3314,10.4569 0,33.95541 0,33.95541 l -65.4855,0 31.5301,-16.9777 c 0,0 -16.9777,-21.30098 -16.9777,-33.95542 0,-12.65443 16.9777,-33.95541 16.9777,-33.95541 z"
       id="path4604"
       inkscape:connector-curvature="0"
       sodipodi:nodetypes="cacccacacccacc"
       inkscape:export-xdpi="90.160004"
       inkscape:export-ydpi="90.160004" />
    <path
       style="fill:#000000;fill-opacity:1;fill-rule:evenodd;stroke:#000000;stroke-width:1.69777071px;stroke-linecap:butt;stroke-linejoin:miter;stroke-opacity:1"
       d="m 313.59834,768.77984 8.4888,-76.39968 84.8886,0 8.4888,76.39968 z"
       id="path4606"
       inkscape:connector-curvature="0"
       inkscape:export-xdpi="90.160004"
       inkscape:export-ydpi="90.160004" />
    <text
       xml:space="preserve"
       style="font-style:normal;font-weight:normal;font-size:76.74289703px;line-height:125%;font-family:sans-serif;letter-spacing:0px;word-spacing:0px;fill:#ffff00;fill-opacity:1;stroke:none;stroke-width:1px;stroke-linecap:butt;stroke-linejoin:miter;stroke-opacity:1"
       x="102.99726"
       y="759.14789"
       id="text4610"
       sodipodi:linespacing="125%"
       inkscape:export-xdpi="90.160004"
       inkscape:export-ydpi="90.160004"><tspan
         sodipodi:role="line"
         id="tspan4612"
         x="102.99726"
         y="759.14789">R</tspan></text>
    <text
       sodipodi:linespacing="125%"
       id="text4614"
       y="779.14789"
       x="333.31207"
       style="font-style:normal;font-weight:normal;font-size:76.74289703px;line-height:125%;font-family:sans-serif;letter-spacing:0px;word-spacing:0px;fill:#ff45cb;fill-opacity:1;stroke:none;stroke-width:1px;stroke-linecap:butt;stroke-linejoin:miter;stroke-opacity:1"
       xml:space="preserve"
       inkscape:export-xdpi="90.160004"
       inkscape:export-ydpi="90.160004"><tspan
         y="779.14789"
         x="333.31207"
         id="tspan4616"
         sodipodi:role="line">R</tspan></text>
    <path
       sodipodi:nodetypes="cacccacacccacc"
       inkscape:connector-curvature="0"
       id="path4630"
       d="m 676.0839,769.55115 c 0,0 16.9777,21.30098 16.9777,33.95541 0,12.65444 -16.9777,33.95542 -16.9777,33.95542 l 33.9554,16.9777 -67.9108,0 c 0,0 4.3314,-23.49851 0,-33.95541 -3.0628,-7.39415 -16.9777,-16.97771 -16.9777,-16.97771 0,0 -13.915,9.58356 -16.9777,16.97771 -4.3314,10.4569 0,33.95541 0,33.95541 l -65.4855,0 31.5301,-16.9777 c 0,0 -16.9777,-21.30098 -16.9777,-33.95542 0,-12.65443 16.9777,-33.95541 16.9777,-33.95541 z"
       style="fill:#000000;fill-opacity:1;fill-rule:evenodd;stroke:#000000;stroke-width:1.69777071px;stroke-linecap:butt;stroke-linejoin:miter;stroke-opacity:1"
       inkscape:export-xdpi="90.160004"
       inkscape:export-ydpi="90.160004" />
    <path
       inkscape:connector-curvature="0"
       id="path4632"
       d="m 574.2177,768.77984 8.4888,-76.39968 84.8886,0 8.4888,76.39968 z"
       style="fill:#000000;fill-opacity:1;fill-rule:evenodd;stroke:#000000;stroke-width:1.69777071px;stroke-linecap:butt;stroke-linejoin:miter;stroke-opacity:1"
       inkscape:export-xdpi="90.160004"
       inkscape:export-ydpi="90.160004" />
    <text
       xml:space="preserve"
       style="font-style:normal;font-weight:normal;font-size:76.74289703px;line-height:125%;font-family:sans-serif;letter-spacing:0px;word-spacing:0px;fill:#ff0000;fill-opacity:1;stroke:none;stroke-width:1px;stroke-linecap:butt;stroke-linejoin:miter;stroke-opacity:1"
       x="611.10406"
       y="768.03619"
       id="text4634"
       sodipodi:linespacing="125%"
       inkscape:export-xdpi="90.160004"
       inkscape:export-ydpi="90.160004"><tspan
         sodipodi:role="line"
         id="tspan4636"
         x="611.10406"
         y="768.03619">R</tspan></text>
  </g>
  <g
     inkscape:groupmode="layer"
     id="layer3"
     inkscape:label="arm"
     style="display:inline"
     sodipodi:insensitive="true">
    <path
       sodipodi:nodetypes="ssssccsssss"
       inkscape:connector-curvature="0"
       id="path4661"
       d="m 184.59712,240.50108 c -3.86789,1.02608 -6.92949,5.33924 -7.6135,9.28202 -1.99421,11.49511 10.88842,25.77622 11.78479,32.95677 0.26277,2.10494 -5.60404,5.82145 -7.6135,9.28203 -3.17723,5.47164 -6.77925,17.72979 -6.77925,17.72979 l 9.28203,7.61348 c 0,0 16.45873,-12.18604 23.67476,-19.39829 2.83036,-2.82887 6.45287,-5.45234 7.6135,-9.28201 1.64137,-5.41598 -0.21741,-11.42549 -1.66852,-16.89552 -2.29441,-8.64887 -4.45181,-18.35808 -10.95054,-24.50902 -4.59529,-4.34936 -11.61409,-8.40164 -17.72977,-6.77925 z"
       style="display:inline;fill:#fffc00;fill-opacity:1;fill-rule:evenodd;stroke:#000000;stroke-width:1.69777071px;stroke-linecap:butt;stroke-linejoin:miter;stroke-opacity:1"
       inkscape:export-xdpi="90.160004"
       inkscape:export-ydpi="90.160004" />
    <path
       style="display:inline;fill:#ff45cb;fill-opacity:1;fill-rule:evenodd;stroke:#000000;stroke-width:1.69777071px;stroke-linecap:butt;stroke-linejoin:miter;stroke-opacity:1"
       d="m 406.48824,240.50108 c -3.8679,1.02608 -6.9295,5.33924 -7.6135,9.28202 -1.9942,11.49511 10.8885,25.77622 11.7848,32.95677 0.2628,2.10494 -5.604,5.82145 -7.6135,9.28203 -3.1772,5.47164 -6.7792,17.72979 -6.7792,17.72979 l 9.282,7.61348 c 0,0 16.4587,-12.18604 23.6748,-19.39829 2.8303,-2.82887 6.4528,-5.45234 7.6135,-9.28201 1.6413,-5.41598 -0.2174,-11.42549 -1.6686,-16.89552 -2.2944,-8.64887 -4.4518,-18.35808 -10.9505,-24.50902 -4.5953,-4.34936 -11.6141,-8.40164 -17.7298,-6.77925 z"
       id="path4608"
       inkscape:connector-curvature="0"
       sodipodi:nodetypes="ssssccsssss"
       inkscape:export-xdpi="90.160004"
       inkscape:export-ydpi="90.160004" />
    <path
       sodipodi:nodetypes="ccssccscc"
       inkscape:connector-curvature="0"
       id="path4638"
       d="m 673.0799,282.86618 -4.5243,-41.80568 c 2.5582,-6.0605 21.3593,21.47509 27.0174,25.9862 1.6586,1.32246 7.8901,-1.74338 11.8908,-1.65211 6.3255,0.14439 18.6623,3.46728 18.6623,3.46728 l 1.6521,11.8908 c 0,0 -18.9833,7.68274 -28.901,10.07574 -3.8901,0.93855 -8.0182,2.66008 -11.8909,1.65213 -5.8725,-2.48054 -15.3481,-7.98535 -13.9064,-9.61436 z"
       style="display:inline;fill:#ff0000;fill-opacity:0.95294118;fill-rule:evenodd;stroke:#000000;stroke-width:1.69777071px;stroke-linecap:butt;stroke-linejoin:miter;stroke-opacity:1"
       inkscape:export-xdpi="90.160004"
       inkscape:export-ydpi="90.160004" />
  </g>
  <g
     inkscape:groupmode="layer"
     id="layer7"
     inkscape:label="head"
     style="display:inline"
     sodipodi:insensitive="true">
    <path
       sodipodi:nodetypes="cccccccccccc"
       inkscape:connector-curvature="0"
       id="path4669"
       d="m 192.98887,238.52339 -52.4017,5.82241 -52.401687,-5.82241 -11.64483,-23.28964 5.82242,-29.11206 0,-34.93446 11.64482,-40.75688 46.579277,-8.52821 46.57929,8.52821 11.64481,29.11206 8.70555,56.05648 z"
       style="fill:#f0f0f0;fill-opacity:1;fill-rule:evenodd;stroke:#000000;stroke-width:1.16448224px;stroke-linecap:butt;stroke-linejoin:miter;stroke-opacity:1"
       inkscape:export-xdpi="90.160004"
       inkscape:export-ydpi="90.160004" />
    <ellipse
       ry="21.607849"
       rx="17.545689"
       cy="179.78668"
       cx="-140.58717"
       id="ellipse4671"
       style="fill:#ffffff;fill-opacity:1;stroke:#000000;stroke-width:1.58981049;stroke-linecap:round;stroke-linejoin:round;stroke-miterlimit:4;stroke-dasharray:none;stroke-opacity:1"
       transform="scale(-1,1)"
       inkscape:export-xdpi="90.160004"
       inkscape:export-ydpi="90.160004" />
    <ellipse
       ry="8.7336168"
       rx="5.8224111"
       cy="183.21048"
       cx="-128.94234"
       id="ellipse4673"
       style="fill:#000000;fill-opacity:1;stroke:none;stroke-width:1.5;stroke-linecap:round;stroke-linejoin:round;stroke-miterlimit:4;stroke-dasharray:none;stroke-opacity:1"
       transform="scale(-1,1)"
       inkscape:export-xdpi="90.160004"
       inkscape:export-ydpi="90.160004" />
    <path
       sodipodi:nodetypes="ccccccc"
       inkscape:connector-curvature="0"
       id="path4687"
       d="m 91.302083,214.93967 43.462677,0.29408 23.28965,-5.82241 -6.32749,19.50157 -22.78457,4.81226 -29.112047,-1.02419 z"
       style="fill:#ffffff;fill-opacity:1;fill-rule:evenodd;stroke:#000000;stroke-width:1.16448224px;stroke-linecap:butt;stroke-linejoin:miter;stroke-opacity:1"
       inkscape:export-xdpi="90.160004"
       inkscape:export-ydpi="90.160004" />
    <path
       inkscape:connector-curvature="0"
       id="path4691"
       d="m 111.47512,209.41134 -9.31586,-4.65793 1.16448,4.65793 z"
       style="fill:#000000;fill-opacity:1;fill-rule:evenodd;stroke:none;stroke-width:1px;stroke-linecap:butt;stroke-linejoin:miter;stroke-opacity:1"
       inkscape:export-xdpi="90.160004"
       inkscape:export-ydpi="90.160004" />
    <ellipse
       style="fill:#ffffff;fill-opacity:1;stroke:#000000;stroke-width:1.36276925;stroke-linecap:round;stroke-linejoin:round;stroke-miterlimit:4;stroke-dasharray:none;stroke-opacity:1"
       id="ellipse4701"
       cx="101.30762"
       cy="180.15053"
       rx="14.657538"
       ry="19.005306"
       inkscape:export-xdpi="90.160004"
       inkscape:export-ydpi="90.160004" />
    <ellipse
       style="fill:#000000;fill-opacity:1;stroke:none;stroke-width:1.5;stroke-linecap:round;stroke-linejoin:round;stroke-miterlimit:4;stroke-dasharray:none;stroke-opacity:1"
       id="ellipse4703"
       cx="111.04658"
       cy="182.06352"
       rx="4.8694992"
       ry="7.3042498"
       inkscape:export-xdpi="90.160004"
       inkscape:export-ydpi="90.160004" />
    <path
       style="fill:none;fill-rule:evenodd;stroke:#000000;stroke-width:1px;stroke-linecap:butt;stroke-linejoin:miter;stroke-opacity:1"
       d="m 175.17481,178.18275 15,-10 10,15 0,25 -10,10 -15,-5"
       id="path4707"
       inkscape:connector-curvature="0"
       inkscape:export-xdpi="90.160004"
       inkscape:export-ydpi="90.160004" />
    <path
       style="fill:#f0f0f0;fill-opacity:1;fill-rule:evenodd;stroke:#000000;stroke-width:1px;stroke-linecap:butt;stroke-linejoin:miter;stroke-opacity:1"
       d="m 88.407043,152.67767 -6.81853,1.16117 0.25254,16.92005 19.040607,-6.31345 9.29315,3.73731 7.27284,10.55584 -0.3033,-15.3033 -12.27284,-8.48477 z"
       id="path4713"
       inkscape:connector-curvature="0"
       sodipodi:nodetypes="ccccccccc"
       inkscape:export-xdpi="90.160004"
       inkscape:export-ydpi="90.160004" />
    <path
       sodipodi:nodetypes="ccccccccc"
       inkscape:connector-curvature="0"
       id="path4715"
       d="m 149.79909,152.67767 6.81853,1.16117 -0.25254,16.92005 -19.04061,-6.31345 -9.29315,3.73731 -7.27284,10.55584 0.3033,-15.3033 12.27284,-8.48477 z"
       style="fill:#f0f0f0;fill-opacity:1;fill-rule:evenodd;stroke:#000000;stroke-width:1px;stroke-linecap:butt;stroke-linejoin:miter;stroke-opacity:1"
       inkscape:export-xdpi="90.160004"
       inkscape:export-ydpi="90.160004" />
    <path
       style="fill:none;fill-rule:evenodd;stroke:#000000;stroke-width:1px;stroke-linecap:butt;stroke-linejoin:miter;stroke-opacity:1"
       d="m 165.17481,218.18275 10,-20"
       id="path4717"
       inkscape:connector-curvature="0"
       inkscape:export-xdpi="90.160004"
       inkscape:export-ydpi="90.160004" />
    <path
       style="fill:none;fill-rule:evenodd;stroke:#000000;stroke-width:1px;stroke-linecap:butt;stroke-linejoin:miter;stroke-opacity:1"
       d="m 165.17481,188.18275 5,5"
       id="path4719"
       inkscape:connector-curvature="0"
       inkscape:export-xdpi="90.160004"
       inkscape:export-ydpi="90.160004" />
    <path
       style="fill:none;fill-rule:evenodd;stroke:#000000;stroke-width:1px;stroke-linecap:butt;stroke-linejoin:miter;stroke-opacity:1"
       d="m 165.17481,173.18275 10,-15 -10,-15"
       id="path4721"
       inkscape:connector-curvature="0"
       inkscape:export-xdpi="90.160004"
       inkscape:export-ydpi="90.160004" />
    <path
       style="fill:none;fill-rule:evenodd;stroke:#000000;stroke-width:1px;stroke-linecap:butt;stroke-linejoin:miter;stroke-opacity:1"
       d="m 120.17481,153.18275 -5,-15"
       id="path4723"
       inkscape:connector-curvature="0"
       inkscape:export-xdpi="90.160004"
       inkscape:export-ydpi="90.160004" />
    <path
       style="fill:none;fill-rule:evenodd;stroke:#000000;stroke-width:1px;stroke-linecap:butt;stroke-linejoin:miter;stroke-opacity:1"
       d="m 130.17481,133.18275 25,-5"
       id="path4725"
       inkscape:connector-curvature="0"
       inkscape:export-xdpi="90.160004"
       inkscape:export-ydpi="90.160004" />
    <path
       style="fill:none;fill-rule:evenodd;stroke:#000000;stroke-width:1px;stroke-linecap:butt;stroke-linejoin:miter;stroke-opacity:1"
       d="m 100.17481,123.18275 10,5"
       id="path4727"
       inkscape:connector-curvature="0"
       inkscape:export-xdpi="90.160004"
       inkscape:export-ydpi="90.160004" />
    <path
       style="fill:none;fill-rule:evenodd;stroke:#000000;stroke-width:1px;stroke-linecap:butt;stroke-linejoin:miter;stroke-opacity:1"
       d="m 170.17481,128.18275 15,-10"
       id="path4729"
       inkscape:connector-curvature="0"
       inkscape:export-xdpi="90.160004"
       inkscape:export-ydpi="90.160004" />
    <g
       id="g4735"
       transform="translate(-534.82519,18.182746)"
       inkscape:export-xdpi="90.160004"
       inkscape:export-ydpi="90.160004">
      <path
         inkscape:connector-curvature="0"
         id="path4731"
         d="m 640,200 0,10"
         style="fill:none;fill-rule:evenodd;stroke:#000000;stroke-width:1px;stroke-linecap:butt;stroke-linejoin:miter;stroke-opacity:1" />
      <path
         inkscape:connector-curvature="0"
         id="path4733"
         d="m 635,205 10,0"
         style="fill:none;fill-rule:evenodd;stroke:#000000;stroke-width:1px;stroke-linecap:butt;stroke-linejoin:miter;stroke-opacity:1" />
    </g>
    <g
       id="g4739"
       transform="translate(-517.40006,18.182746)"
       inkscape:export-xdpi="90.160004"
       inkscape:export-ydpi="90.160004">
      <path
         style="fill:none;fill-rule:evenodd;stroke:#000000;stroke-width:1px;stroke-linecap:butt;stroke-linejoin:miter;stroke-opacity:1"
         d="m 640,200 0,10"
         id="path4741"
         inkscape:connector-curvature="0" />
      <path
         style="fill:none;fill-rule:evenodd;stroke:#000000;stroke-width:1px;stroke-linecap:butt;stroke-linejoin:miter;stroke-opacity:1"
         d="m 635,205 10,0"
         id="path4743"
         inkscape:connector-curvature="0" />
    </g>
    <g
       transform="translate(-499.21732,18.182746)"
       id="g4745"
       inkscape:export-xdpi="90.160004"
       inkscape:export-ydpi="90.160004">
      <path
         inkscape:connector-curvature="0"
         id="path4747"
         d="m 640,200 0,10"
         style="fill:none;fill-rule:evenodd;stroke:#000000;stroke-width:1px;stroke-linecap:butt;stroke-linejoin:miter;stroke-opacity:1" />
      <path
         inkscape:connector-curvature="0"
         id="path4749"
         d="m 635,205 10,0"
         style="fill:none;fill-rule:evenodd;stroke:#000000;stroke-width:1px;stroke-linecap:butt;stroke-linejoin:miter;stroke-opacity:1" />
    </g>
    <path
       style="fill:#ffc759;fill-opacity:1;fill-rule:evenodd;stroke:#000000;stroke-width:1px;stroke-linecap:butt;stroke-linejoin:miter;stroke-opacity:1"
       d="m 323.49454,162.85714 c 0,0 5.2741,26.5657 5,40 -0.4135,20.27166 -10,60 -10,60 0,0 19.8783,5.57325 30,5 12.1141,-0.68609 35,-10 35,-10 l 35,-30 0,-10 10,5 c 0,0 8.8917,-12.6293 10,-20 1.5075,-10.02523 -5,-30 -5,-30 l -15,5 -15,5 -5,-15 -15,-5 c 0,0 -9.0024,9.6266 -15,10 -7.4392,0.46315 -20,-10 -20,-10 0,0 -9.7428,5.37362 -15,5 -3.7174,-0.26419 -10,-5 -10,-5 z"
       id="path4576"
       inkscape:connector-curvature="0"
       sodipodi:nodetypes="cacaccccacccccacac"
       inkscape:export-xdpi="90.160004"
       inkscape:export-ydpi="90.160004" />
    <path
       style="fill:#ff7c17;fill-opacity:1;fill-rule:evenodd;stroke:#000000;stroke-width:1px;stroke-linecap:butt;stroke-linejoin:miter;stroke-opacity:1"
       d="m 328.04024,187.85714 -19.5457,-10 c 0,0 -11.8046,-16.20802 -10,-25 0.9478,-4.61777 10,-10 10,-10 l 10,0 -5,-15 c 0,0 -2.6287,-10.74674 0,-15 3.9186,-6.34037 12.5608,-10.46314 20,-10 5.9976,0.3734 15,10 15,10 l 5,5 c 0,0 15.3876,-13.56963 25,-15 6.797,-1.01142 14.6397,0.7001 20,5 2.907,2.33195 5,10 5,10 0,0 13.1282,-5 20,-5 6.8718,0 15.2578,0.0267 20,5 5.8646,6.15051 4.1626,16.54299 5,25 0.3285,3.31711 0,10 0,10 0,0 12.294,8.46719 15,15 3.189,7.699 3.189,17.301 0,25 -2.706,6.53281 -15,15 -15,15 0,0 -0.7001,14.63968 -5,20 -2.3319,2.90704 -6.2826,4.73581 -10,5 -5.2572,0.37362 -15,-5 -15,-5 l 0,-10 10,5 c 0,0 8.8917,-12.6293 10,-20 1.5075,-10.02523 -5,-30 -5,-30 l -30,10 -5,-15 -15,-5 c 0,0 -9.0024,9.6266 -15,10 -7.4392,0.46315 -20,-10 -20,-10 0,0 -9.7428,5.37362 -15,5 -3.7174,-0.26419 -10,-5 -10,-5 z"
       id="path4578"
       inkscape:connector-curvature="0"
       sodipodi:nodetypes="ccacccaaccaacaaacaacaacccaccccacacc"
       inkscape:export-xdpi="90.160004"
       inkscape:export-ydpi="90.160004" />
    <ellipse
       ry="21.607849"
       rx="17.545689"
       cy="202.64383"
       cx="-346.55682"
       id="ellipse4580"
       style="fill:#ffffff;fill-opacity:1;stroke:#000000;stroke-width:1.58981049;stroke-linecap:round;stroke-linejoin:round;stroke-miterlimit:4;stroke-dasharray:none;stroke-opacity:1"
       transform="scale(-1,1)"
       inkscape:export-xdpi="90.160004"
       inkscape:export-ydpi="90.160004" />
    <ellipse
       ry="8.7336168"
       rx="5.8224111"
       cy="197.48132"
       cx="-335.92206"
       id="ellipse4582"
       style="fill:#0000ff;fill-opacity:1;stroke:none;stroke-width:1.5;stroke-linecap:round;stroke-linejoin:round;stroke-miterlimit:4;stroke-dasharray:none;stroke-opacity:1"
       transform="scale(-1,1)"
       inkscape:export-xdpi="90.160004"
       inkscape:export-ydpi="90.160004" />
    <ellipse
       style="fill:#ffffff;fill-opacity:1;stroke:#000000;stroke-width:1.58981049;stroke-linecap:round;stroke-linejoin:round;stroke-miterlimit:4;stroke-dasharray:none;stroke-opacity:1"
       id="ellipse4584"
       cx="370.29535"
       cy="202.64383"
       rx="17.545689"
       ry="21.607849"
       inkscape:export-xdpi="90.160004"
       inkscape:export-ydpi="90.160004" />
    <ellipse
       style="fill:#0000ff;fill-opacity:1;stroke:none;stroke-width:1.5;stroke-linecap:round;stroke-linejoin:round;stroke-miterlimit:4;stroke-dasharray:none;stroke-opacity:1"
       id="ellipse4586"
       cx="381.94025"
       cy="196.47118"
       rx="5.8224111"
       ry="8.7336168"
       inkscape:export-xdpi="90.160004"
       inkscape:export-ydpi="90.160004" />
    <path
       style="fill:#000000;fill-opacity:1;fill-rule:evenodd;stroke:#000000;stroke-width:1px;stroke-linecap:butt;stroke-linejoin:miter;stroke-opacity:1"
       d="m 348.49454,237.85714 -10,-5 0,5 z"
       id="path4589"
       inkscape:connector-curvature="0"
       inkscape:export-xdpi="90.160004"
       inkscape:export-ydpi="90.160004" />
    <path
       style="fill:none;fill-rule:evenodd;stroke:#000000;stroke-width:1px;stroke-linecap:butt;stroke-linejoin:miter;stroke-opacity:1"
       d="m 328.49454,247.85714 c 0,0 6.3213,5.59696 10,5 2.3266,-0.37755 2.643,-5 5,-5 2.357,0 2.706,4.45847 5,5 5.1295,1.2109 9.8705,-6.2109 15,-5 2.294,0.54153 2.6544,4.76774 5,5 5.98,0.59214 15,-10 15,-10"
       id="path4591"
       inkscape:connector-curvature="0"
       sodipodi:nodetypes="caaaaac"
       inkscape:export-xdpi="90.160004"
       inkscape:export-ydpi="90.160004" />
    <path
       style="fill:#ff7c17;fill-opacity:1;fill-rule:evenodd;stroke:#000000;stroke-width:1px;stroke-linecap:butt;stroke-linejoin:miter;stroke-opacity:1"
       d="m 330.53274,187.06363 9.6788,-6.42857 14.7982,10.75761 0.079,-13.82877 -2.9834,3.90428 -12.5253,-6.66624 z"
       id="path4593"
       inkscape:connector-curvature="0"
       sodipodi:nodetypes="ccccccc"
       inkscape:export-xdpi="90.160004"
       inkscape:export-ydpi="90.160004" />
    <path
       sodipodi:nodetypes="ccccccc"
       inkscape:connector-curvature="0"
       id="path4598"
       d="m 387.19444,187.06363 -13.2143,-6.42857 -17.5762,10.75761 -0.079,-13.82877 2.9834,3.90428 15.3033,-6.66624 z"
       style="fill:#ff7c17;fill-opacity:1;fill-rule:evenodd;stroke:#000000;stroke-width:1px;stroke-linecap:butt;stroke-linejoin:miter;stroke-opacity:1"
       inkscape:export-xdpi="90.160004"
       inkscape:export-ydpi="90.160004" />
    <path
       style="display:inline;fill:#bc6915;fill-opacity:1;fill-rule:evenodd;stroke:#000000;stroke-width:1px;stroke-linecap:butt;stroke-linejoin:miter;stroke-opacity:1"
       d="m 607.1852,242.85714 61.0715,3.92857 10.7142,-21.07142 -11.7857,-6.07143 13.9286,0.35714 0,-10 19.2857,-12.85714 c 0,0 -13.2279,-4.09854 -17.1428,-9.28572 -5.2895,-7.00847 -5.7143,-25.71428 -5.7143,-25.71428 0,0 4.7025,-14.75257 3.5714,-22.14286 -1.1276,-7.36777 -10,-20 -10,-20 l -30.3571,-0.35714 -32.5,34.64285 3.5714,56.07143 z"
       id="path4666"
       inkscape:connector-curvature="0"
       sodipodi:nodetypes="cccccccacaccccc"
       inkscape:export-xdpi="90.160004"
       inkscape:export-ydpi="90.160004" />
    <path
       style="display:inline;fill:#6f4fcb;fill-opacity:1;fill-rule:evenodd;stroke:#000000;stroke-width:1px;stroke-linecap:butt;stroke-linejoin:miter;stroke-opacity:1"
       d="m 671.1138,120 c 0,0 -14.2775,5.22415 -20,10 -12.7959,10.67912 -26.7009,23.66312 -30,40 -2.7205,13.47174 7.2014,26.54427 10,40 2.0644,9.92553 2.0242,20.30865 5,30 2.8458,9.26782 11.4819,16.75624 12.1429,26.42857 0.5597,8.19087 -2.2497,16.97897 -7.1429,23.57143 -7.1631,9.65065 -19.6051,13.96759 -30,20 -6.4467,3.74114 -12.7458,8.28752 -20,10 -9.7325,2.29753 -30,0 -30,0 l -10,-10 -10,-10 20,0 c 0,0 7.2436,-6.17577 10,-10 4.3582,-6.04664 8.2875,-12.74583 10,-20 2.2975,-9.73249 0,-30 0,-30 l -10,-20 -20,-30 c 0,0 -2.7291,-20.37962 0,-30 3.5886,-12.65008 11.225,-24.46896 20.7143,-33.57143 8.0776,-7.74828 19.0495,-11.9004 29.2857,-16.42857 9.6398,-4.26437 19.4668,-9.59548 30,-10 13.7336,-0.527435 31.542,-0.832848 40,10 2.0514,2.62735 0,10 0,10 z"
       id="path4668"
       inkscape:connector-curvature="0"
       sodipodi:nodetypes="caaaaaaaaccccaacccaaaaac"
       inkscape:export-xdpi="90.160004"
       inkscape:export-ydpi="90.160004" />
    <path
       style="display:inline;fill:none;fill-rule:evenodd;stroke:#000000;stroke-width:2;stroke-linecap:round;stroke-linejoin:round;stroke-miterlimit:4;stroke-dasharray:none;stroke-opacity:1"
       d="m 671.1138,170 c 0,0 -2.1846,7.55821 -5,10 -3.9816,3.45322 -15,5 -15,5"
       id="path4670"
       inkscape:connector-curvature="0"
       sodipodi:nodetypes="cac"
       inkscape:export-xdpi="90.160004"
       inkscape:export-ydpi="90.160004" />
    <path
       style="display:inline;fill:none;fill-rule:evenodd;stroke:#000000;stroke-width:3;stroke-linecap:round;stroke-linejoin:round;stroke-miterlimit:4;stroke-dasharray:none;stroke-opacity:1"
       d="m 646.1138,165 c 0,0 4.7295,-14.72954 10,-20 2.6352,-2.63523 6.3213,-5.59696 10,-5 2.3266,0.37755 5,5 5,5"
       id="path4672"
       inkscape:connector-curvature="0"
       sodipodi:nodetypes="caac"
       inkscape:export-xdpi="90.160004"
       inkscape:export-ydpi="90.160004" />
  </g>
  <g
     inkscape:groupmode="layer"
     id="layer2"
     inkscape:label="hand"
     style="display:inline"
     sodipodi:insensitive="true">
    <path
       sodipodi:nodetypes="ssssssss"
       inkscape:connector-curvature="0"
       id="path4663"
       d="m 187.95219,315.10618 c -1.53137,-3.69706 -4.79178,-6.95748 -8.48885,-8.48885 -2.61423,-1.08285 -5.49263,-0.75653 -7.73854,0.96469 -2.15975,1.65519 -1.33049,4.67588 -2.87253,6.91782 -1.55791,2.26501 -6.6366,0.53298 -7.09856,3.24295 -0.86677,5.08455 0.47315,11.83726 5.04044,14.23392 5.01121,2.62959 13.94072,1.32197 17.94241,-2.67971 4.00168,-4.00168 5.38133,-8.96236 3.21563,-14.19082 z"
       style="display:inline;fill:#f0f0f0;fill-opacity:1;fill-rule:evenodd;stroke:#000000;stroke-width:1.69777071px;stroke-linecap:butt;stroke-linejoin:miter;stroke-opacity:1"
       inkscape:export-xdpi="90.160004"
       inkscape:export-ydpi="90.160004" />
    <path
       inkscape:connector-curvature="0"
       id="path4665"
       d="m 169.27671,315.10618 3.39554,3.39555 -3.39554,3.39554"
       style="display:inline;fill:none;fill-rule:evenodd;stroke:#000000;stroke-width:1.69777071px;stroke-linecap:butt;stroke-linejoin:miter;stroke-opacity:1"
       inkscape:export-xdpi="90.160004"
       inkscape:export-ydpi="90.160004" />
    <path
       inkscape:connector-curvature="0"
       id="path4667"
       d="m 172.67225,318.50173 3.39555,-3.39555"
       style="display:inline;fill:none;fill-rule:evenodd;stroke:#000000;stroke-width:1.69777071px;stroke-linecap:butt;stroke-linejoin:miter;stroke-opacity:1"
       inkscape:export-xdpi="90.160004"
       inkscape:export-ydpi="90.160004" />
    <path
       style="display:inline;fill:#ffc759;fill-opacity:1;fill-rule:evenodd;stroke:#000000;stroke-width:1.69777071px;stroke-linecap:butt;stroke-linejoin:miter;stroke-opacity:1"
       d="m 407.15534,315.10618 c -1.5314,-3.69706 -4.7918,-6.95748 -8.4889,-8.48885 -2.6142,-1.08285 -5.4926,-0.75653 -7.7385,0.96469 -2.1598,1.65519 -1.3305,4.67588 -2.8726,6.91782 -1.5579,2.26501 -6.6366,0.53298 -7.0985,3.24295 -0.8668,5.08455 0.4731,11.83726 5.0404,14.23392 5.0112,2.62959 13.9407,1.32197 17.9424,-2.67971 4.0017,-4.00168 5.3814,-8.96236 3.2157,-14.19082 z"
       id="path4620"
       inkscape:connector-curvature="0"
       sodipodi:nodetypes="ssssssss"
       inkscape:export-xdpi="90.160004"
       inkscape:export-ydpi="90.160004" />
    <path
       style="display:inline;fill:#ffc759;fill-opacity:1;fill-rule:evenodd;stroke:#000000;stroke-width:1.69777071px;stroke-linecap:butt;stroke-linejoin:miter;stroke-opacity:1"
       d="m 388.47984,315.10618 3.3955,3.39555 -3.3955,3.39554"
       id="path4622"
       inkscape:connector-curvature="0"
       inkscape:export-xdpi="90.160004"
       inkscape:export-ydpi="90.160004" />
    <path
       style="display:inline;fill:#ffc759;fill-opacity:1;fill-rule:evenodd;stroke:#000000;stroke-width:1.69777071px;stroke-linecap:butt;stroke-linejoin:miter;stroke-opacity:1"
       d="m 391.87534,318.50173 3.3956,-3.39555"
       id="path4624"
       inkscape:connector-curvature="0"
       inkscape:export-xdpi="90.160004"
       inkscape:export-ydpi="90.160004" />
    <path
       sodipodi:nodetypes="ssssssss"
       inkscape:connector-curvature="0"
       id="path4660"
       d="m 724.3365,281.29219 c -3.5009,-1.9384 -6.373,-5.54555 -7.4778,-9.39171 -0.7813,-2.71961 -0.1326,-5.54287 1.8308,-7.58043 1.8881,-1.95945 4.7961,-0.79492 7.1976,-2.07447 2.4262,-1.29264 1.2777,-6.53421 4.0224,-6.68768 5.1499,-0.28811 11.7085,1.80446 13.5751,6.61282 2.0479,5.27568 -0.258,14.00086 -4.6853,17.52596 -4.4272,3.52509 -9.5118,4.3368 -14.4628,1.59551 z"
       style="display:inline;fill:#bc6915;fill-opacity:1;fill-rule:evenodd;stroke:#000000;stroke-width:1.69777071px;stroke-linecap:butt;stroke-linejoin:miter;stroke-opacity:1"
       inkscape:export-xdpi="90.160004"
       inkscape:export-ydpi="90.160004" />
    <path
       inkscape:connector-curvature="0"
       id="path4662"
       d="m 726.4417,262.73573 2.9911,3.75663 3.7567,-2.99109"
       style="display:inline;fill:#ffc759;fill-opacity:1;fill-rule:evenodd;stroke:#000000;stroke-width:1.69777071px;stroke-linecap:butt;stroke-linejoin:miter;stroke-opacity:1"
       inkscape:export-xdpi="90.160004"
       inkscape:export-ydpi="90.160004" />
    <path
       inkscape:connector-curvature="0"
       id="path4664"
       d="m 729.4328,266.49236 -3.7566,2.99118"
       style="display:inline;fill:#ffc759;fill-opacity:1;fill-rule:evenodd;stroke:#000000;stroke-width:1.69777071px;stroke-linecap:butt;stroke-linejoin:miter;stroke-opacity:1"
       inkscape:export-xdpi="90.160004"
       inkscape:export-ydpi="90.160004" />
    <path
       style="display:inline;fill:#7b6b00;fill-opacity:1;fill-rule:evenodd;stroke:#000000;stroke-width:1px;stroke-linecap:butt;stroke-linejoin:miter;stroke-opacity:1"
       d="m 726.1138,270 5,-30 c 0,0 -8.2586,-9.24859 -10,-15 -2.8978,-9.57092 -3.1623,-20.51317 0,-30 2.6352,-7.90569 8.2396,-15.12741 15,-20 4.2756,-3.08169 9.8656,-6.19004 15,-5 5.0435,1.16899 8.4427,6.43265 11.0714,10.89286 2.4785,4.20529 4.0148,9.22659 3.9286,14.10714 -0.2341,13.26063 -2.9654,28.23833 -12.0203,37.92893 C 749.6966,237.63446 736.1138,240 736.1138,240 l -5,25 z"
       id="path4674"
       inkscape:connector-curvature="0"
       sodipodi:nodetypes="ccaaaaaaaccc"
       inkscape:export-xdpi="90.160004"
       inkscape:export-ydpi="90.160004" />
    <path
       style="fill:#7b6a74;fill-opacity:1;fill-rule:evenodd;stroke:#000000;stroke-width:1px;stroke-linecap:butt;stroke-linejoin:miter;stroke-opacity:1"
       d="m 731.1138,235 c -6.3404,-3.91857 -9.0107,-12.61239 -10,-20 -0.9669,-7.21986 1.2635,-14.80081 4.2857,-21.42857 2.3415,-5.13481 5.9978,-9.80891 10.3572,-13.39286 2.9816,-2.45126 6.5221,-5.616 10.3571,-5.17857 5.7549,0.65642 10.7514,5.9166 13.3929,11.07143 3.6456,7.1145 3.1819,16.09106 1.6071,23.92857 -1.4683,7.3075 -4.7295,14.72954 -10,20 -2.6352,2.63523 -6.3729,4.14376 -10,5 -3.2442,0.76584 -7.1645,1.75244 -10,0 z"
       id="path4677"
       inkscape:connector-curvature="0"
       sodipodi:nodetypes="aaaaaaaaaa"
       inkscape:export-xdpi="90.160004"
       inkscape:export-ydpi="90.160004" />
  </g>
</svg>
